<?xml version="1.0" encoding="UTF-8"?>
<svg version="1.1" xmlns="http://www.w3.org/2000/svg" width="368" height="318">
<path d="M0 0 C0.63421875 0.58136719 1.2684375 1.16273437 1.921875 1.76171875 C22.53839005 21.24923417 35.03339358 49.53477049 36.34765625 77.7890625 C37.21542825 112.35960955 24.52997369 142.16201535 0.8046875 167.125 C-29.69603446 198.61504835 -71.70749498 212.67267306 -114.8046875 213.96875 C-140.45780034 214.36152493 -166.01421613 209.86922171 -189.38037109 199.14746094 C-193.35712961 197.38752554 -195.86836747 196.4196673 -200 198 C-202.13864601 199.14620244 -204.23984273 200.36338253 -206.3125 201.625 C-221.79196374 210.76004929 -238.53223273 216.53219254 -255.9375 220.8125 C-256.81365967 221.03180176 -257.68981934 221.25110352 -258.5925293 221.47705078 C-263.86646962 222.72348131 -268.58194939 223.21973554 -274 223 C-273.39143503 218.64267485 -271.7684141 215.4168698 -269.6875 211.5625 C-266.0802119 204.62987276 -263.77154081 197.62350264 -262 190 C-261.82412354 189.27748047 -261.64824707 188.55496094 -261.46704102 187.81054688 C-255.83511747 162.81116212 -261.49574009 136.52124163 -268.93359375 112.53125 C-277.86093994 82.96963479 -271.55887253 52.04488779 -257.33496094 25.34277344 C-254.13653438 19.72973371 -250.24679457 14.86128253 -246 10 C-244.89011719 8.68515625 -244.89011719 8.68515625 -243.7578125 7.34375 C-215.22452623 -25.55583986 -173.88301365 -43.05435327 -130.99633789 -46.53930664 C-82.21060294 -49.94740206 -35.32300358 -33.61882358 0 0 Z " fill="#C9B069" transform="translate(288,50)"/>
<path d="M0 0 C5.40412556 1.80137519 7.50416391 7.95900339 9.98779297 12.84228516 C20.26483191 34.74977917 21.13287967 56.8433606 13.9375 79.75 C8.71385192 97.34967584 7.94858061 117.85351906 15 135 C16.8465012 138.28146791 18.89770059 141.41041764 21.08984375 144.47070312 C22.12688392 145.93526482 23.07178865 147.46415594 24 149 C23 152 23 152 21 153 C2.81604079 154.04711001 -16.61329205 147.11688146 -32.36328125 138.4453125 C-33.23339844 137.96835937 -34.10351562 137.49140625 -35 137 C-35.77601563 136.55011719 -36.55203125 136.10023438 -37.3515625 135.63671875 C-41.33915538 134.67804967 -44.39662629 136.21101295 -48.0625 137.6875 C-49.59366259 138.2628262 -51.12622586 138.83443822 -52.66015625 139.40234375 C-53.40539551 139.68062012 -54.15063477 139.95889648 -54.91845703 140.24560547 C-82.87082395 150.3761255 -116.78171387 148.19023676 -143.60595703 135.79589844 C-159.19233882 128.21149177 -159.19233882 128.21149177 -162 124 C-160.1623216 122.1623216 -157.19134654 122.49728046 -154.7109375 122.23828125 C-153.37454823 122.09196893 -152.03828988 121.94445696 -150.70214844 121.79589844 C-149.99634644 121.71786987 -149.29054443 121.63984131 -148.56335449 121.55944824 C-113.41979249 117.59361871 -80.72695863 106.6182768 -53 84 C-52.06027344 83.26136719 -51.12054688 82.52273437 -50.15234375 81.76171875 C-25.84273864 62.4009741 -7.18631294 34.02791601 -1.4375 3.16796875 C-1 1 -1 1 0 0 Z " fill="#C4A763" transform="translate(336,154)"/>
<path d="M0 0 C0.66 0.33 1.32 0.66 2 1 C1.54917531 2.46067199 1.08906463 3.91848032 0.625 5.375 C0.24214844 6.59316406 0.24214844 6.59316406 -0.1484375 7.8359375 C-1 10 -1 10 -3 12 C-3.61875 12.2475 -4.2375 12.495 -4.875 12.75 C-7.89959838 14.52917552 -9.12487156 17.07011181 -11 20 C-12.33333333 21.33333333 -13.66666667 22.66666667 -15 24 C-21.68395146 32.18003816 -21.68395146 32.18003816 -25 42 C-25.33333333 43.66666667 -25.66666667 45.33333333 -26 47 C-26.66 47 -27.32 47 -28 47 C-31.06735075 51.84839313 -32.35766608 55.21899472 -33 61 C-33.63028587 62.68076231 -34.29788106 64.34795544 -35 66 C-36.56906659 70.96871086 -37.0415567 74.92216512 -36.9375 80.125 C-37 83 -37 83 -38 85 C-38.12463392 87.63760152 -38.18516573 90.2372717 -38.1875 92.875 C-38.19974609 93.59558594 -38.21199219 94.31617188 -38.22460938 95.05859375 C-38.23549353 98.99865764 -37.84496032 101.56632384 -36 105 C-35.91015625 107.62109375 -35.91015625 107.62109375 -36.0625 110.4375 C-36.16019586 115.05973526 -35.55319281 117.11914693 -33 121 C-32.62957469 123.34191113 -32.43986095 125.64493137 -32.30859375 128.01171875 C-32.16482736 130.22870058 -32.16482736 130.22870058 -30 132 C-29.34 132 -28.68 132 -28 132 C-28.185625 133.134375 -28.37125 134.26875 -28.5625 135.4375 C-28.7790625 137.2009375 -28.7790625 137.2009375 -29 139 C-28.67 139.33 -28.34 139.66 -28 140 C-25.50305586 152.40669121 -24.91826773 164.88333489 -24.875 177.5 C-24.86799072 178.93460571 -24.86799072 178.93460571 -24.86083984 180.39819336 C-24.86398193 181.7634314 -24.86398193 181.7634314 -24.8671875 183.15625 C-24.86831543 183.96900391 -24.86944336 184.78175781 -24.87060547 185.61914062 C-25.00882833 188.16244123 -25.44938089 190.51573919 -26 193 C-26.144375 193.763125 -26.28875 194.52625 -26.4375 195.3125 C-30.64864865 215.43243243 -30.64864865 215.43243243 -36 219 C-35.67 219.66 -35.34 220.32 -35 221 C-35 222.32 -35 223.64 -35 225 C-32.03 224.01 -29.06 223.02 -26 222 C-26 222.66 -26 223.32 -26 224 C-25.4225 223.79375 -24.845 223.5875 -24.25 223.375 C-21.46268972 222.91044829 -20.41969001 223.66815382 -18 225 C-20.66419818 225.67815954 -23.33065758 226.34265777 -26 227 C-26.74378906 227.19078125 -27.48757812 227.3815625 -28.25390625 227.578125 C-33.30303458 228.80747799 -37.80400642 229.18894522 -43 229 C-42.39143503 224.64267485 -40.7684141 221.4168698 -38.6875 217.5625 C-35.0802119 210.62987276 -32.77154081 203.62350264 -31 196 C-30.82412354 195.27748047 -30.64824707 194.55496094 -30.46704102 193.81054688 C-24.83511747 168.81116212 -30.49574009 142.52124163 -37.93359375 118.53125 C-46.86093994 88.96963479 -40.55887253 58.04488779 -26.33496094 31.34277344 C-23.13752095 25.73146508 -19.25146042 20.85493725 -15 16 C-13.80310547 14.61554687 -13.80310547 14.61554687 -12.58203125 13.203125 C-8.54868525 8.63605314 -4.36345139 4.25156802 0 0 Z " fill="#7C5A30" transform="translate(57,44)"/>
<path d="M0 0 C25.41873819 17.59758797 41.965402 44.98184797 47.8684082 75.078125 C53.02702034 105.20007097 45.76393664 135.24220317 28.73828125 160.453125 C19.82563552 172.6780107 8.5914482 185.48785468 -4 194 C-4.66 194 -5.32 194 -6 194 C-6 193.01 -6 192.02 -6 191 C-5.01 191 -4.02 191 -3 191 C-3 190.34 -3 189.68 -3 189 C-2.34 188.67 -1.68 188.34 -1 188 C-0.505 187.01 -0.505 187.01 0 186 C2.5625 185.375 2.5625 185.375 5 185 C5 182.36 5 179.72 5 177 C6.32 177 7.64 177 9 177 C11.37175129 174.46277769 13.44147439 172.11705122 15 169 C15.99 169 16.98 169 18 169 C18.33 168.01 18.66 167.02 19 166 C19.66 166 20.32 166 21 166 C21 163.03 21 160.06 21 157 C22.32 156.67 23.64 156.34 25 156 C25 155.34 25 154.68 25 154 C27.475 153.01 27.475 153.01 30 152 C29.67 150.68 29.34 149.36 29 148 C29.99 148.33 30.98 148.66 32 149 C32.08636719 148.19175781 32.17273438 147.38351563 32.26171875 146.55078125 C33.13502084 139.90887821 33.8076295 136.52668197 39 132 C39.87989974 128.81849108 39.87989974 128.81849108 40 126 C39.01 125.505 39.01 125.505 38 125 C38.99 124.67 39.98 124.34 41 124 C41.495 122.515 41.495 122.515 42 121 C42.66 121 43.32 121 44 121 C44.09087891 119.35451172 44.09087891 119.35451172 44.18359375 117.67578125 C44.26804498 116.22134346 44.35269066 114.76691695 44.4375 113.3125 C44.47681641 112.59126953 44.51613281 111.87003906 44.55664062 111.12695312 C44.78249977 107.32209516 45.20836372 103.73573814 46 100 C46.08572295 98.66877295 46.13037892 97.33397337 46.125 96 C46.12757813 95.360625 46.13015625 94.72125 46.1328125 94.0625 C46.04408496 91.94405682 46.04408496 91.94405682 45.5234375 89.68359375 C44.89717796 86.47284523 44.69850157 83.3271419 44.5 80.0625 C44.23051448 75.64005013 43.79868356 71.35948112 43 67 C42.34 67 41.68 67 41 67 C40.505 62.545 40.505 62.545 40 58 C39.34 58 38.68 58 38 58 C37.01 53.05 37.01 53.05 36 48 C35.21625 48.350625 34.4325 48.70125 33.625 49.0625 C32.75875 49.371875 31.8925 49.68125 31 50 C30.01 49.505 30.01 49.505 29 49 C29.391875 48.175 29.78375 47.35 30.1875 46.5 C31.15881471 42.31587511 30.42253708 40.53925709 28.7265625 36.734375 C28 35 28 35 28 33 C26.68 32.67 25.36 32.34 24 32 C24.33 31.34 24.66 30.68 25 30 C24.34 30 23.68 30 23 30 C23 28.68 23 27.36 23 26 C18.08417923 24.48046291 18.08417923 24.48046291 13 24 C13.66 22.35 14.32 20.7 15 19 C14.21625 18.2575 13.4325 17.515 12.625 16.75 C10 14 10 14 8.9375 11.8125 C7.70208304 9.4240272 6.49183399 8.90612145 4 8 C0.94729537 7.84188612 0.94729537 7.84188612 -2 9 C-3 6 -3 6 -1.5625 2.8125 C-1.046875 1.884375 -0.53125 0.95625 0 0 Z " fill="#6F532D" transform="translate(275,39)"/>
<path d="M0 0 C5.40412556 1.80137519 7.50416391 7.95900339 9.98779297 12.84228516 C20.26483191 34.74977917 21.13287967 56.8433606 13.9375 79.75 C8.71385192 97.34967584 7.94858061 117.85351906 15 135 C16.8465012 138.28146791 18.89770059 141.41041764 21.08984375 144.47070312 C22.12688392 145.93526482 23.07178865 147.46415594 24 149 C23 152 23 152 21 153 C8.26424054 153.38240531 -3.04671577 150.041612 -15 146 C-7.36297052 142.04981234 -2.17919138 141.84382972 6 144 C10.34242429 139.65757571 10.7444669 135.86448454 11 130 C10.34 130 9.68 130 9 130 C7.09571888 122.09383283 6.80732561 114.41106875 6.8125 106.3125 C6.81185547 105.33917725 6.81121094 104.36585449 6.81054688 103.36303711 C6.87508668 94.72717127 7.52714674 86.85919365 10.0625 78.5625 C11.46972008 74.34939582 11.46972008 74.34939582 12 70 C12.99 70 13.98 70 15 70 C14.979375 68.741875 14.95875 67.48375 14.9375 66.1875 C14.89113917 63.35948913 15.08307039 61.75078884 16 59 C16.0960133 56.54318899 16.12983042 54.08368167 16.125 51.625 C16.12757813 50.31789062 16.13015625 49.01078125 16.1328125 47.6640625 C16.02180675 44.60160962 15.64357172 41.97461892 15 39 C14.88321201 36.32321927 14.9545494 33.68158543 15 31 C14.34 31 13.68 31 13 31 C10.23687929 26.85531894 9.36729103 22.41669399 8.125 17.625 C7.2892562 14.8291841 7.2892562 14.8291841 4.875 14.125 C4.25625 14.08375 3.6375 14.0425 3 14 C3 13.34 3 12.68 3 12 C2.01 12 1.02 12 0 12 C0 12.66 0 13.32 0 14 C-0.66 14 -1.32 14 -2 14 C-2 14.66 -2 15.32 -2 16 C-2.66 16 -3.32 16 -4 16 C-3.52546129 13.51986371 -3.04561015 11.04096744 -2.5625 8.5625 C-2.42779297 7.85544922 -2.29308594 7.14839844 -2.15429688 6.41992188 C-1.11328125 1.11328125 -1.11328125 1.11328125 0 0 Z " fill="#9A753F" transform="translate(336,154)"/>
<path d="M0 0 C5.40412556 1.80137519 7.50416391 7.95900339 9.98779297 12.84228516 C20.26483191 34.74977917 21.13287967 56.8433606 13.9375 79.75 C11.24548743 88.64086144 10.70491404 97.78046635 10 107 C9.67 107 9.34 107 9 107 C9.00523682 106.43490723 9.01047363 105.86981445 9.01586914 105.28759766 C9.03662422 102.7334097 9.0496554 100.17923947 9.0625 97.625 C9.07087891 96.73554688 9.07925781 95.84609375 9.08789062 94.9296875 C9.09111328 94.07890625 9.09433594 93.228125 9.09765625 92.3515625 C9.10289307 91.56604004 9.10812988 90.78051758 9.11352539 89.97119141 C9.12573953 87.92227332 9.12573953 87.92227332 8 86 C8.57361944 83.64787205 9.23267387 81.31619629 9.9375 79 C11.42463383 74.57309044 11.42463383 74.57309044 12 70 C12.99 70 13.98 70 15 70 C14.979375 68.741875 14.95875 67.48375 14.9375 66.1875 C14.89113917 63.35948913 15.08307039 61.75078884 16 59 C16.0960133 56.54318899 16.12983042 54.08368167 16.125 51.625 C16.12757813 50.31789062 16.13015625 49.01078125 16.1328125 47.6640625 C16.02180675 44.60160962 15.64357172 41.97461892 15 39 C14.88321201 36.32321927 14.9545494 33.68158543 15 31 C14.34 31 13.68 31 13 31 C10.23687929 26.85531894 9.36729103 22.41669399 8.125 17.625 C7.2892562 14.8291841 7.2892562 14.8291841 4.875 14.125 C4.25625 14.08375 3.6375 14.0425 3 14 C3 13.34 3 12.68 3 12 C2.01 12 1.02 12 0 12 C0 12.66 0 13.32 0 14 C-0.66 14 -1.32 14 -2 14 C-2 14.66 -2 15.32 -2 16 C-2.66 16 -3.32 16 -4 16 C-3.52546129 13.51986371 -3.04561015 11.04096744 -2.5625 8.5625 C-2.42779297 7.85544922 -2.29308594 7.14839844 -2.15429688 6.41992188 C-1.11328125 1.11328125 -1.11328125 1.11328125 0 0 Z " fill="#866B42" transform="translate(336,154)"/>
<path d="M0 0 C0 1.65 0 3.3 0 5 C-0.66 5 -1.32 5 -2 5 C-1.93941406 6.02738281 -1.87882812 7.05476562 -1.81640625 8.11328125 C-2.63542681 25.45212078 -22.70543412 43.34027178 -34.9375 54.5625 C-43.22988506 62 -43.22988506 62 -46 62 C-46 61.01 -46 60.02 -46 59 C-45.01 59 -44.02 59 -43 59 C-43 58.34 -43 57.68 -43 57 C-42.01 56.505 -42.01 56.505 -41 56 C-40.67 55.34 -40.34 54.68 -40 54 C-37.4375 53.375 -37.4375 53.375 -35 53 C-35 50.36 -35 47.72 -35 45 C-33.68 45 -32.36 45 -31 45 C-28.62824871 42.46277769 -26.55852561 40.11705122 -25 37 C-24.01 37 -23.02 37 -22 37 C-21.67 36.01 -21.34 35.02 -21 34 C-20.34 34 -19.68 34 -19 34 C-19 31.03 -19 28.06 -19 25 C-17.68 24.67 -16.36 24.34 -15 24 C-15 23.34 -15 22.68 -15 22 C-13.35 21.34 -11.7 20.68 -10 20 C-10.495 18.02 -10.495 18.02 -11 16 C-10.01 16.33 -9.02 16.66 -8 17 C-7.91363281 16.19175781 -7.82726562 15.38351563 -7.73828125 14.55078125 C-6.44752467 4.73392619 -6.44752467 4.73392619 -3.4375 1.75 C-1 0 -1 0 0 0 Z " fill="#957341" transform="translate(315,171)"/>
<path d="M0 0 C12.77018723 8.84089885 29.25752497 23.2652861 33.1875 38.875 C33.49632596 40.57687544 33.7831403 42.28397979 34 44 C34.66 44 35.32 44 36 44 C35.75 45.875 35.75 45.875 35 48 C33.0625 49.3125 33.0625 49.3125 31 50 C30.01 49.505 30.01 49.505 29 49 C29.391875 48.175 29.78375 47.35 30.1875 46.5 C31.15881471 42.31587511 30.42253708 40.53925709 28.7265625 36.734375 C28 35 28 35 28 33 C26.68 32.67 25.36 32.34 24 32 C24.33 31.34 24.66 30.68 25 30 C24.34 30 23.68 30 23 30 C23 28.68 23 27.36 23 26 C18.08417923 24.48046291 18.08417923 24.48046291 13 24 C13.66 22.35 14.32 20.7 15 19 C14.21625 18.2575 13.4325 17.515 12.625 16.75 C10 14 10 14 8.9375 11.8125 C7.70208304 9.4240272 6.49183399 8.90612145 4 8 C0.94729537 7.84188612 0.94729537 7.84188612 -2 9 C-3 6 -3 6 -1.5625 2.8125 C-1.046875 1.884375 -0.53125 0.95625 0 0 Z " fill="#A48443" transform="translate(275,39)"/>
<path d="M0 0 C-3.43535849 3.17175425 -6.15330091 3.45766505 -10.75 3.6875 C-11.92046875 3.75324219 -13.0909375 3.81898438 -14.296875 3.88671875 C-15.18890625 3.92410156 -16.0809375 3.96148437 -17 4 C-17 5.32 -17 6.64 -17 8 C-18.010625 7.95875 -19.02125 7.9175 -20.0625 7.875 C-24.07206508 8.00228778 -27.19637991 8.77997091 -31 10 C-31.763125 10.12375 -32.52625 10.2475 -33.3125 10.375 C-35.22148239 10.88311303 -35.22148239 10.88311303 -36.25 13.0625 C-36.4975 13.701875 -36.745 14.34125 -37 15 C-35.35 15 -33.7 15 -32 15 C-32 15.66 -32 16.32 -32 17 C-31.01 16.67 -30.02 16.34 -29 16 C-28.34 17.65 -27.68 19.3 -27 21 C-25.35 21 -23.7 21 -22 21 C-22 21.66 -22 22.32 -22 23 C-28.0453243 22.49039415 -32.86343772 19.88230053 -38.1875 17.1875 C-39.08919922 16.74857422 -39.99089844 16.30964844 -40.91992188 15.85742188 C-41.78552734 15.42365234 -42.65113281 14.98988281 -43.54296875 14.54296875 C-44.32696045 14.15133545 -45.11095215 13.75970215 -45.91870117 13.35620117 C-48.22718666 11.85196224 -49.48605226 10.2819668 -51 8 C-49.12791791 6.12791791 -45.98179693 6.44726491 -43.46484375 6.16796875 C-42.09059523 6.00989959 -40.71641131 5.85126806 -39.34228516 5.69213867 C-38.62163879 5.60983002 -37.90099243 5.52752136 -37.1585083 5.44271851 C-26.09827302 4.17177471 -15.27828642 2.80204291 -4.5703125 -0.36328125 C-2 -1 -2 -1 0 0 Z " fill="#7C5D36" transform="translate(225,270)"/>
<path d="M0 0 C0.66 0.33 1.32 0.66 2 1 C1.54917531 2.46067199 1.08906463 3.91848032 0.625 5.375 C0.24214844 6.59316406 0.24214844 6.59316406 -0.1484375 7.8359375 C-1 10 -1 10 -3 12 C-3.61875 12.2475 -4.2375 12.495 -4.875 12.75 C-7.89959838 14.52917552 -9.12487156 17.07011181 -11 20 C-12.33333333 21.33333333 -13.66666667 22.66666667 -15 24 C-21.68395146 32.18003816 -21.68395146 32.18003816 -25 42 C-25.33333333 43.66666667 -25.66666667 45.33333333 -26 47 C-26.66 46.67 -27.32 46.34 -28 46 C-29.485 46.495 -29.485 46.495 -31 47 C-28.5932812 27.87073505 -13.52805748 12.70354833 0 0 Z " fill="#8A6738" transform="translate(57,44)"/>
<path d="M0 0 C0.66 0 1.32 0 2 0 C2.33 1.32 2.66 2.64 3 4 C2.38125 4.185625 1.7625 4.37125 1.125 4.5625 C-2.05602866 6.71437233 -2.19451947 9.37533763 -3 13 C-3.99 13 -4.98 13 -6 13 C-8.41820979 15.72048602 -10.1701066 18.86303989 -12 22 C-13.65 21.67 -15.3 21.34 -17 21 C-17.66 23.64 -18.32 26.28 -19 29 C-25.625 30 -25.625 30 -29 30 C-26.45168206 22.1233809 -20.81346701 17.92092451 -14.50390625 13.03125 C-11.58841872 10.66611191 -9.02190606 8.09733848 -6.47265625 5.34765625 C-5 4 -5 4 -2 3 C-1.34 2.01 -0.68 1.02 0 0 Z " fill="#C1B47A" transform="translate(306,218)"/>
<path d="M0 0 C0.66 0.33 1.32 0.66 2 1 C2 1.66 2 2.32 2 3 C3.32 3.33 4.64 3.66 6 4 C5.47535156 4.25652344 4.95070312 4.51304687 4.41015625 4.77734375 C0.30255275 6.80722435 -3.77725167 8.86171516 -7.78125 11.08984375 C-35.27715182 26.27871414 -35.27715182 26.27871414 -48.25 26.0625 C-50.10625 26.0315625 -50.10625 26.0315625 -52 26 C-51.505 24.515 -51.505 24.515 -51 23 C-47.91015625 22.015625 -47.91015625 22.015625 -44.0625 21.25 C-42.16177734 20.85554688 -42.16177734 20.85554688 -40.22265625 20.453125 C-37 20 -37 20 -35 21 C-35 20.34 -35 19.68 -35 19 C-28.33333333 16.33333333 -21.66666667 13.66666667 -15 11 C-15 10.34 -15 9.68 -15 9 C-14.37351563 8.73445312 -13.74703125 8.46890625 -13.1015625 8.1953125 C-12.28429687 7.84210938 -11.46703125 7.48890625 -10.625 7.125 C-9.40683594 6.60292969 -9.40683594 6.60292969 -8.1640625 6.0703125 C-5.86197701 5.07553933 -5.86197701 5.07553933 -4 3 C-2 1 -2 1 0 0 Z " fill="#AF9563" transform="translate(87,242)"/>
<path d="M0 0 C0.66 0.99 1.32 1.98 2 3 C2.99 3.66 3.98 4.32 5 5 C-0.81146166 6.94246116 -6.26777388 7.49921892 -12.375 7.75 C-13.35927979 7.79310303 -14.34355957 7.83620605 -15.35766602 7.88061523 C-26.96563922 8.25365374 -38.4632057 7.19235433 -50 6 C-49.67 5.01 -49.34 4.02 -49 3 C-47.906875 3.020625 -46.81375 3.04125 -45.6875 3.0625 C-42.05615809 3.18544452 -42.05615809 3.18544452 -39 2 C-39 2.66 -39 3.32 -39 4 C-38.34773437 3.91621094 -37.69546875 3.83242188 -37.0234375 3.74609375 C-32.07004108 3.16892809 -27.92924666 3.01415067 -23 4 C-22.34 3.67 -21.68 3.34 -21 3 C-21 3.66 -21 4.32 -21 5 C-20.175 4.835 -19.35 4.67 -18.5 4.5 C-14.62630135 3.94661448 -10.9098331 4 -7 4 C-4.99279077 3.71325582 -2.98821313 3.39764263 -1 3 C-0.67 2.01 -0.34 1.02 0 0 Z " fill="#C7C289" transform="translate(192,256)"/>
<path d="M0 0 C-0.125 1.75 -0.125 1.75 -1 4 C-6.22222222 8 -6.22222222 8 -9 8 C-9 8.66 -9 9.32 -9 10 C-12.465 11.485 -12.465 11.485 -16 13 C-15.67 14.32 -15.34 15.64 -15 17 C-15.53625 16.7525 -16.0725 16.505 -16.625 16.25 C-20.33209622 15.85977935 -22.12884406 17.80081672 -25 20 C-25.86625 20.86625 -25.86625 20.86625 -26.75 21.75 C-27.1625 22.1625 -27.575 22.575 -28 23 C-28.66 23 -29.32 23 -30 23 C-30.33 23.99 -30.66 24.98 -31 26 C-31.99 25.67 -32.98 25.34 -34 25 C-32.61648994 20.07789689 -29.68447327 17.66548559 -25.75 14.6875 C-24.82912598 13.9761792 -24.82912598 13.9761792 -23.88964844 13.25048828 C-6.33241674 0 -6.33241674 0 0 0 Z " fill="#AE9762" transform="translate(92,22)"/>
<path d="M0 0 C0.12375 0.598125 0.2475 1.19625 0.375 1.8125 C0.95475985 4.26231348 0.95475985 4.26231348 3 7 C2.360625 7.66 1.72125 8.32 1.0625 9 C-1.22696315 12.33012823 -1.47913857 14.18860453 -1.79296875 18.0859375 C-2.06776982 20.62655113 -2.96060678 22.67665044 -4 25 C-4.33 26.010625 -4.66 27.02125 -5 28.0625 C-6 31 -6 31 -7.03662109 32.77636719 C-8.3233293 35.74629582 -8.32594379 38.28460547 -8.4140625 41.515625 C-8.45273437 42.76601562 -8.49140625 44.01640625 -8.53125 45.3046875 C-8.5621875 46.60664063 -8.593125 47.90859375 -8.625 49.25 C-8.66367187 50.56742188 -8.70234375 51.88484375 -8.7421875 53.2421875 C-8.83646182 56.49465161 -8.9220675 59.74710996 -9 63 C-9.33 63 -9.66 63 -10 63 C-11.90707292 41.19751765 -9.9266644 19.85332881 0 0 Z " fill="#6F512E" transform="translate(26,85)"/>
<path d="M0 0 C0.33 0 0.66 0 1 0 C3.59363291 14.26498101 1.2311917 28.08094402 -3.0625 41.75 C-5.75451257 50.64086144 -6.29508596 59.78046635 -7 69 C-7.33 69 -7.66 69 -8 69 C-7.99476318 68.43490723 -7.98952637 67.86981445 -7.98413086 67.28759766 C-7.96337578 64.7334097 -7.9503446 62.17923947 -7.9375 59.625 C-7.92912109 58.73554688 -7.92074219 57.84609375 -7.91210938 56.9296875 C-7.90888672 56.07890625 -7.90566406 55.228125 -7.90234375 54.3515625 C-7.89710693 53.56604004 -7.89187012 52.78051758 -7.88647461 51.97119141 C-7.87426047 49.92227332 -7.87426047 49.92227332 -9 48 C-8.42638056 45.64787205 -7.76732613 43.31619629 -7.0625 41 C-5.57536617 36.57309044 -5.57536617 36.57309044 -5 32 C-4.01 32 -3.02 32 -2 32 C-2.020625 30.741875 -2.04125 29.48375 -2.0625 28.1875 C-2.10886083 25.35948913 -1.91692961 23.75078884 -1 21 C-0.85284801 19.37432921 -0.75278133 17.74413143 -0.68359375 16.11328125 C-0.64169922 15.17548828 -0.59980469 14.23769531 -0.55664062 13.27148438 C-0.51732422 12.29501953 -0.47800781 11.31855469 -0.4375 10.3125 C-0.39431641 9.32443359 -0.35113281 8.33636719 -0.30664062 7.31835938 C-0.20058346 4.87904454 -0.09852286 2.43962887 0 0 Z " fill="#795C33" transform="translate(353,192)"/>
<path d="M0 0 C6.55652174 0.8826087 6.55652174 0.8826087 9.125 1.5625 C11.44929721 2.10483602 13.62216121 2.06605108 16 2 C16.33 2.99 16.66 3.98 17 5 C21.10893433 7.18483817 25.55310634 8.18775388 30.1875 8.0625 C33.98450222 8.00025406 36.50439711 8.60175884 40 10 C37.56423898 12.43576102 36.88902945 12.29020622 33.54296875 12.296875 C27.8371611 12.17793993 22.74951257 10.89494344 17.3125 9.25 C16.41466797 8.99734375 15.51683594 8.7446875 14.59179688 8.484375 C9.23166078 6.91363915 4.72850689 4.97553101 0 2 C0 1.34 0 0.68 0 0 Z " fill="#C8B47E" transform="translate(103,248)"/>
<path d="M0 0 C0.66 0.33 1.32 0.66 2 1 C-1.43535849 4.17175425 -4.15330091 4.45766505 -8.75 4.6875 C-9.92046875 4.75324219 -11.0909375 4.81898438 -12.296875 4.88671875 C-13.18890625 4.92410156 -14.0809375 4.96148437 -15 5 C-15 6.32 -15 7.64 -15 9 C-16.010625 8.95875 -17.02125 8.9175 -18.0625 8.875 C-22.07206508 9.00228778 -25.19637991 9.77997091 -29 11 C-29.7425 11.165 -30.485 11.33 -31.25 11.5 C-33.32541158 11.99682525 -33.32541158 11.99682525 -36 14 C-36.99 14 -37.98 14 -39 14 C-38.67 12.35 -38.34 10.7 -38 9 C-32.61972975 7.80911014 -27.54708616 6.7080481 -22 7 C-22 6.34 -22 5.68 -22 5 C-21.16021606 4.82609741 -21.16021606 4.82609741 -20.3034668 4.64868164 C-17.76442215 4.12180947 -15.22595912 3.59218569 -12.6875 3.0625 C-11.36588867 2.78889648 -11.36588867 2.78889648 -10.01757812 2.50976562 C-9.17001953 2.33251953 -8.32246094 2.15527344 -7.44921875 1.97265625 C-6.66893311 1.81031494 -5.88864746 1.64797363 -5.0847168 1.48071289 C-2.8247029 0.99433396 -2.8247029 0.99433396 0 0 Z " fill="#AA8A52" transform="translate(223,269)"/>
<path d="M0 0 C2.00720923 0.28674418 4.0085944 0.61866701 6 1 C1.00382033 6.64888723 -5.838566 8.60861164 -13.26660156 9.171875 C-18.1852469 9.33427353 -23.08468585 9.21191774 -28 9 C-28 8.67 -28 8.34 -28 8 C-22.61509359 7.08342019 -17.45769811 6.88861841 -12 7 C-12 6.01 -12 5.02 -12 4 C-9.525 4.495 -9.525 4.495 -7 5 C-7.33 4.01 -7.66 3.02 -8 2 C-5.53925394 0.76962697 -3.7202437 1 -1 1 C-0.67 0.67 -0.34 0.34 0 0 Z " fill="#DED795" transform="translate(284,288)"/>
<path d="M0 0 C6.86482787 6.48344854 9.61677254 11.79061717 11 21 C11.66 21 12.32 21 13 21 C12.75 22.875 12.75 22.875 12 25 C10.0625 26.3125 10.0625 26.3125 8 27 C7.34 26.67 6.68 26.34 6 26 C6.391875 25.175 6.78375 24.35 7.1875 23.5 C8.15881471 19.31587511 7.42253708 17.53925709 5.7265625 13.734375 C5 12 5 12 5 10 C3.68 9.67 2.36 9.34 1 9 C1.33 8.34 1.66 7.68 2 7 C1.34 7 0.68 7 0 7 C0 4.69 0 2.38 0 0 Z " fill="#927245" transform="translate(298,62)"/>
<path d="M0 0 C0.99 0.33 1.98 0.66 3 1 C4.16796875 3.3984375 4.16796875 3.3984375 5.1875 6.375 C5.53167969 7.35210937 5.87585938 8.32921875 6.23046875 9.3359375 C7 12 7 12 7 15 C5.68 14.67 4.36 14.34 3 14 C3 13.34 3 12.68 3 12 C2.01 12 1.02 12 0 12 C0 12.66 0 13.32 0 14 C-0.66 14 -1.32 14 -2 14 C-2 14.66 -2 15.32 -2 16 C-2.66 16 -3.32 16 -4 16 C-3.52546129 13.51986371 -3.04561015 11.04096744 -2.5625 8.5625 C-2.42779297 7.85544922 -2.29308594 7.14839844 -2.15429688 6.41992188 C-1.11328125 1.11328125 -1.11328125 1.11328125 0 0 Z " fill="#A68044" transform="translate(336,154)"/>
<path d="M0 0 C1.64933228 0.06399526 3.29615131 0.20073916 4.9375 0.375 C6.28134766 0.51035156 6.28134766 0.51035156 7.65234375 0.6484375 C10 1 10 1 12 2 C12 3.32 12 4.64 12 6 C12.66 6.66 13.32 7.32 14 8 C6.25798419 7.61422945 -0.67671225 6.57611228 -8 4 C-5.66785852 2.79371992 -3.50357861 1.8345262 -1 1 C-0.67 0.67 -0.34 0.34 0 0 Z " fill="#B08D51" transform="translate(329,296)"/>
<path d="M0 0 C0.15082031 0.60585937 0.30164063 1.21171875 0.45703125 1.8359375 C0.85813713 3.4345897 1.26991216 5.03057372 1.6875 6.625 C1.790625 7.40875 1.89375 8.1925 2 9 C1.34 9.66 0.68 10.32 0 11 C-0.33 10.67 -0.66 10.34 -1 10 C-1.66 13.63 -2.32 17.26 -3 21 C-3.99 21 -4.98 21 -6 21 C-6.061875 22.093125 -6.12375 23.18625 -6.1875 24.3125 C-7 28 -7 28 -9.5625 29.9375 C-10.366875 30.288125 -11.17125 30.63875 -12 31 C-12.33 30.34 -12.66 29.68 -13 29 C-11.86069526 26.50136607 -10.66369398 24.10773015 -9.375 21.6875 C-5.70810097 14.61102819 -2.67690961 7.51593851 0 0 Z " fill="#988053" transform="translate(331,170)"/>
<path d="M0 0 C0.66 0.33 1.32 0.66 2 1 C1.54917531 2.46067199 1.08906463 3.91848032 0.625 5.375 C0.36976562 6.18710937 0.11453125 6.99921875 -0.1484375 7.8359375 C-1 10 -1 10 -3 12 C-3.61875 12.2475 -4.2375 12.495 -4.875 12.75 C-7.88743859 14.5220227 -9.16163307 17.08396969 -11 20 C-11.33 20 -11.66 20 -12 20 C-12.26389908 14.63405203 -11.9717982 12.17702267 -8.484375 7.953125 C-5.76648925 5.17819885 -2.91327398 2.56771265 0 0 Z " fill="#997C49" transform="translate(57,44)"/>
<path d="M0 0 C3.24712187 2.70925506 4.8590395 6.24785994 6.625 10 C6.93767822 10.66265869 7.25035645 11.32531738 7.57250977 12.00805664 C10.08225107 17.61127848 11.08974299 22.83337459 11 29 C11.33 29 11.66 29 12 29 C12 30.65 12 32.3 12 34 C11.505 32.515 11.505 32.515 11 31 C10.34 31 9.68 31 9 31 C8.67 28.03 8.34 25.06 8 22 C7.34 22 6.68 22 6 22 C5.66179834 20.4176994 5.32964061 18.83410625 5 17.25 C4.7215625 15.92742187 4.7215625 15.92742187 4.4375 14.578125 C4 12 4 12 4 8 C3.34 8 2.68 8 2 8 C0.23537317 4.91190305 0 3.76687864 0 0 Z " fill="#906B3E" transform="translate(307,75)"/>
<path d="M0 0 C10.50790609 0.90785218 10.50790609 0.90785218 15.5 1.625 C18.96748102 2.24166986 18.96748102 2.24166986 22 1 C22.33 1.99 22.66 2.98 23 4 C28.61 4.33 34.22 4.66 40 5 C40 5.33 40 5.66 40 6 C26.56578045 6.40213296 12.89676297 6.29892099 0 2 C0 1.34 0 0.68 0 0 Z " fill="#A39461" transform="translate(210,294)"/>
<path d="M0 0 C0.66 0.33 1.32 0.66 2 1 C1.85892253 2.45880109 1.71197585 3.91703551 1.5625 5.375 C1.48128906 6.18710938 1.40007813 6.99921875 1.31640625 7.8359375 C1 10 1 10 0 12 C-0.12463392 14.63760152 -0.18516573 17.2372717 -0.1875 19.875 C-0.19974609 20.59558594 -0.21199219 21.31617188 -0.22460938 22.05859375 C-0.23541207 25.96916845 0.08045377 28.61256548 2 32 C2.24636612 34.70017269 2.09065666 37.28030006 2 40 C1.01 40.495 1.01 40.495 0 41 C0 38.36 0 35.72 0 33 C-0.66 33 -1.32 33 -2 33 C-2.04946113 28.78248718 -2.08574827 24.56512832 -2.10986328 20.34741211 C-2.119917 18.91281188 -2.13356194 17.47823211 -2.15087891 16.04370117 C-2.17515549 13.98090562 -2.18648919 11.91838115 -2.1953125 9.85546875 C-2.20578613 8.61434326 -2.21625977 7.37321777 -2.22705078 6.09448242 C-2 3 -2 3 0 0 Z " fill="#93682F" transform="translate(19,117)"/>
<path d="M0 0 C0.33 0 0.66 0 1 0 C0.96618701 10.97231622 -1.48759281 19.147221 -6 29 C-6.33 29 -6.66 29 -7 29 C-7 27.35 -7 25.7 -7 24 C-6.34 24 -5.68 24 -5 24 C-5 20.37 -5 16.74 -5 13 C-5.66 12.67 -6.32 12.34 -7 12 C-6.01 11.67 -5.02 11.34 -4 11 C-3.67 10.01 -3.34 9.02 -3 8 C-2.34 8 -1.68 8 -1 8 C-0.67 5.36 -0.34 2.72 0 0 Z " fill="#835E32" transform="translate(320,152)"/>
<path d="M0 0 C0 1.65 0 3.3 0 5 C-0.66 5 -1.32 5 -2 5 C-1.896875 5.94875 -1.79375 6.8975 -1.6875 7.875 C-1.63294589 13.18857028 -4.45863005 17.48906833 -7 22 C-8.32 20.68 -9.64 19.36 -11 18 C-10.67 17.34 -10.34 16.68 -10 16 C-9.34 16.33 -8.68 16.66 -8 17 C-7.87044922 15.78763672 -7.87044922 15.78763672 -7.73828125 14.55078125 C-6.44752467 4.73392619 -6.44752467 4.73392619 -3.4375 1.75 C-1 0 -1 0 0 0 Z " fill="#836538" transform="translate(315,171)"/>
<path d="M0 0 C0.33 1.32 0.66 2.64 1 4 C0.38125 4.185625 -0.2375 4.37125 -0.875 4.5625 C-4.05602866 6.71437233 -4.19451947 9.37533763 -5 13 C-5.99 13 -6.98 13 -8 13 C-10.07277359 15.31193977 -11.00978527 17.02935582 -12 20 C-14 19 -14 19 -15 17 C-14.34 16.67 -13.68 16.34 -13 16 C-12.9175 15.236875 -12.835 14.47375 -12.75 13.6875 C-11.68071723 9.85590342 -9.2571377 9.07902407 -6 7 C-6 6.01 -6 5.02 -6 4 C-2.57142857 0 -2.57142857 0 0 0 Z " fill="#D3BB78" transform="translate(308,218)"/>
<path d="M0 0 C1.29315061 0.95632999 2.58446853 1.91513851 3.875 2.875 C4.59429687 3.40867188 5.31359375 3.94234375 6.0546875 4.4921875 C8 6 8 6 10 8 C10.125 11.125 10.125 11.125 10 14 C9.7525 13.38125 9.505 12.7625 9.25 12.125 C7.76749514 9.60474173 6.71612936 8.98768341 4 8 C0.94729537 7.84188612 0.94729537 7.84188612 -2 9 C-3 6 -3 6 -1.5625 2.8125 C-1.046875 1.884375 -0.53125 0.95625 0 0 Z " fill="#937B4E" transform="translate(275,39)"/>
<path d="M0 0 C0.66 0 1.32 0 2 0 C2 0.66 2 1.32 2 2 C3.01320312 1.87431641 3.01320312 1.87431641 4.046875 1.74609375 C4.93890625 1.64425781 5.8309375 1.54242188 6.75 1.4375 C7.63171875 1.33308594 8.5134375 1.22867187 9.421875 1.12109375 C11.88432451 1.00543324 13.66538064 1.26361305 16 2 C16 2.66 16 3.32 16 4 C7.75 4 -0.5 4 -9 4 C-8.67 3.01 -8.34 2.02 -8 1 C-6.865625 1.020625 -5.73125 1.04125 -4.5625 1.0625 C-1.18424326 1.41577477 -1.18424326 1.41577477 0 0 Z " fill="#E0D99A" transform="translate(151,258)"/>
<path d="M0 0 C1.10844919 3.32534757 0.84454356 5.62182575 0 9 C-6.625 10 -6.625 10 -10 10 C-8.64844718 5.57673622 -6.80109562 3.59587018 -3 1 C-2.01 0.67 -1.02 0.34 0 0 Z " fill="#E8D689" transform="translate(287,238)"/>
<path d="M0 0 C1.33332095 2.6666419 0.67102033 4.16680303 0 7 C-0.66 7 -1.32 7 -2 7 C-2.268125 7.9075 -2.53625 8.815 -2.8125 9.75 C-3.91621109 12.77068297 -4.78569921 14.70053379 -7 17 C-8.32594105 17.36162029 -9.65938457 17.69728039 -11 18 C-11.66 18.99 -12.32 19.98 -13 21 C-13.66 20.67 -14.32 20.34 -15 20 C-14.25234375 19.05898437 -13.5046875 18.11796875 -12.734375 17.1484375 C-11.73946379 15.89071956 -10.74467883 14.63290173 -9.75 13.375 C-9.25886719 12.75753906 -8.76773437 12.14007813 -8.26171875 11.50390625 C-5.31695237 7.77386883 -2.5793722 3.99188555 0 0 Z " fill="#A89766" transform="translate(317,201)"/>
<path d="M0 0 C-0.6875 1.9375 -0.6875 1.9375 -2 4 C-4.3125 4.5625 -4.3125 4.5625 -7 5 C-8.68496298 5.96885372 -10.35178756 6.96986723 -12 8 C-13.65369357 8.69822617 -15.31727014 9.37498605 -17 10 C-13.51179577 1.43804417 -8.34565366 -0.13460732 0 0 Z " fill="#B6AB79" transform="translate(274,250)"/>
<path d="M0 0 C-0.99 0 -1.98 0 -3 0 C-3 0.66 -3 1.32 -3 2 C-2.34 2.66 -1.68 3.32 -1 4 C-3.64 3.67 -6.28 3.34 -9 3 C-9 3.66 -9 4.32 -9 5 C-9.60328125 5.04898437 -10.2065625 5.09796875 -10.828125 5.1484375 C-11.62734375 5.22320313 -12.4265625 5.29796875 -13.25 5.375 C-14.03890625 5.44460937 -14.8278125 5.51421875 -15.640625 5.5859375 C-18.085877 6.01507113 -19.84836903 6.78600638 -22 8 C-22.66 7.34 -23.32 6.68 -24 6 C-21.22927957 5.02051288 -18.45842883 4.04139725 -15.6875 3.0625 C-14.50897461 2.64581055 -14.50897461 2.64581055 -13.30664062 2.22070312 C-12.54931641 1.95322266 -11.79199219 1.68574219 -11.01171875 1.41015625 C-10.31522217 1.16402588 -9.61872559 0.91789551 -8.90112305 0.66430664 C-5.37595036 -0.56748929 -3.58564016 -1.11278488 0 0 Z " fill="#B4A56E" transform="translate(124,11)"/>
<path d="M0 0 C4.08805579 0.1964231 7.43222395 0.99660635 11.33984375 2.1875 C12.57605469 2.55875 13.81226563 2.93 15.0859375 3.3125 C16.01535156 3.60125 16.94476563 3.89 17.90234375 4.1875 C17.90234375 5.1775 17.90234375 6.1675 17.90234375 7.1875 C17.0825 6.9709375 16.26265625 6.754375 15.41796875 6.53125 C14.3403125 6.2528125 13.26265625 5.974375 12.15234375 5.6875 C11.085 5.4090625 10.01765625 5.130625 8.91796875 4.84375 C5.76529073 4.04574011 5.76529073 4.04574011 1.90234375 4.1875 C1.90234375 3.5275 1.90234375 2.8675 1.90234375 2.1875 C-0.07765625 3.1775 -0.07765625 3.1775 -2.09765625 4.1875 C-2.75765625 3.1975 -3.41765625 2.2075 -4.09765625 1.1875 C-3.09765625 0.1875 -3.09765625 0.1875 0 0 Z " fill="#BFB07E" transform="translate(214.09765625,9.8125)"/>
<path d="M0 0 C0.33 0.66 0.66 1.32 1 2 C1.66 2.33 2.32 2.66 3 3 C-3.83911885 5.55327104 -9.66186666 7.5644718 -17 7 C-16.67 6.01 -16.34 5.02 -16 4 C-12.91015625 3.015625 -12.91015625 3.015625 -9.0625 2.25 C-7.79535156 1.98703125 -6.52820312 1.7240625 -5.22265625 1.453125 C-2 1 -2 1 0 2 C0 1.34 0 0.68 0 0 Z " fill="#977748" transform="translate(52,261)"/>
<path d="M0 0 C1.10855769 3.32567306 0.94999826 3.85888806 -0.1875 7 C-0.4659375 7.78246094 -0.744375 8.56492188 -1.03125 9.37109375 C-1.3509375 10.23863281 -1.670625 11.10617188 -2 12 C-2.3609375 13.00160156 -2.721875 14.00320312 -3.09375 15.03515625 C-4.05410262 17.6932751 -5.0234012 20.34781544 -6 23 C-6.33 23 -6.66 23 -7 23 C-7.3540919 16.48208608 -7.03901852 11.82478551 -4 6 C-3.34 6 -2.68 6 -2 6 C-2 4.68 -2 3.36 -2 2 C-1.34 2 -0.68 2 0 2 C0 1.34 0 0.68 0 0 Z " fill="#8D6731" transform="translate(30,238)"/>
<path d="M0 0 C6.76954918 10.15432377 5.31093687 23.34562549 5 35 C2.71387939 31.57081909 2.95977343 29.81265331 3.05859375 25.8203125 C2.93508786 19.87556256 2.6864839 12.37296779 0 7 C-0.04022391 4.6670134 -0.04320247 2.33293334 0 0 Z " fill="#7C5931" transform="translate(317,96)"/>
<path d="M0 0 C7.31110994 -0.3689719 13.21256822 0.18447274 20 3 C19.01 3.495 19.01 3.495 18 4 C17.67 4.99 17.34 5.98 17 7 C16.01 7 15.02 7 14 7 C14 6.34 14 5.68 14 5 C12.68 5 11.36 5 10 5 C9.67 4.34 9.34 3.68 9 3 C6.88153715 2.31270746 6.88153715 2.31270746 4.4375 1.875 C3.61121094 1.70742187 2.78492188 1.53984375 1.93359375 1.3671875 C1.29550781 1.24601563 0.65742188 1.12484375 0 1 C0 0.67 0 0.34 0 0 Z " fill="#E3D794" transform="translate(190,6)"/>
<path d="M0 0 C0 0.66 0 1.32 0 2 C0.5775 1.79375 1.155 1.5875 1.75 1.375 C4.53731028 0.91044829 5.58030999 1.66815382 8 3 C0.82140651 5.04061541 -5.52605426 6.37369729 -13 6 C-10.87838666 3.87838666 -9.2266841 3.07013751 -6.5 1.875 C-5.7059375 1.52179688 -4.911875 1.16859375 -4.09375 0.8046875 C-2 0 -2 0 0 0 Z " fill="#755933" transform="translate(31,266)"/>
<path d="M0 0 C0.680625 0.28875 1.36125 0.5775 2.0625 0.875 C0.39583333 2.54166667 -1.27083333 4.20833333 -2.9375 5.875 C-3.494375 6.473125 -4.05125 7.07125 -4.625 7.6875 C-5.9375 8.875 -5.9375 8.875 -7.9375 8.875 C-8.2675 9.865 -8.5975 10.855 -8.9375 11.875 C-9.9275 11.545 -10.9175 11.215 -11.9375 10.875 C-10.46988691 5.33068389 -6.05533197 -0.2576737 0 0 Z " fill="#A28855" transform="translate(69.9375,36.125)"/>
<path d="M0 0 C1.47968023 2.95936046 0.84835797 4.86760134 0 8 C-1.9375 9.3125 -1.9375 9.3125 -4 10 C-6.56995074 11.28497537 -6.90434463 12.49912373 -8.125 15.0625 C-8.65480469 16.16271484 -8.65480469 16.16271484 -9.1953125 17.28515625 C-9.59363281 18.13400391 -9.59363281 18.13400391 -10 19 C-10.99 19 -11.98 19 -13 19 C-11.44301719 14.09456622 -8.56676327 10.62049764 -5.375 6.6875 C-4.859375 6.04232422 -4.34375 5.39714844 -3.8125 4.73242188 C-2.54705818 3.1506196 -1.27425738 1.57470937 0 0 Z " fill="#735E3C" transform="translate(45,56)"/>
<path d="M0 0 C-4.24115452 3.71101021 -9.39377956 5.83711122 -15 6.1875 C-15.66 6.125625 -16.32 6.06375 -17 6 C-16 3 -16 3 -13.92578125 1.796875 C-5.27893696 -1.66703273 -5.27893696 -1.66703273 0 0 Z " fill="#A88C54" transform="translate(70,257)"/>
<path d="M0 0 C1.134375 0.020625 2.26875 0.04125 3.4375 0.0625 C3.1075 0.7225 2.7775 1.3825 2.4375 2.0625 C5.9025 4.0425 5.9025 4.0425 9.4375 6.0625 C9.4375 6.3925 9.4375 6.7225 9.4375 7.0625 C4.2212917 7.3754725 0.87174223 6.91308429 -3.5625 4.0625 C-3.8925 3.0725 -4.2225 2.0825 -4.5625 1.0625 C-3.5625 0.0625 -3.5625 0.0625 0 0 Z " fill="#BBA167" transform="translate(310.5625,289.9375)"/>
<path d="M0 0 C0.80566406 0.00322266 1.61132812 0.00644531 2.44140625 0.00976562 C3.70404297 0.02233398 3.70404297 0.02233398 4.9921875 0.03515625 C5.84167969 0.03966797 6.69117188 0.04417969 7.56640625 0.04882812 C9.66669659 0.06062751 11.7669508 0.07856319 13.8671875 0.09765625 C13.8671875 0.75765625 13.8671875 1.41765625 13.8671875 2.09765625 C12.8771875 2.07703125 11.8871875 2.05640625 10.8671875 2.03515625 C7.50448436 2.02839025 4.2660169 2.4119823 0.93359375 2.875 C-2.42996863 3.23742544 -5.75267914 3.15801577 -9.1328125 3.09765625 C-5.64237727 0.77069943 -4.09547084 -0.02884134 0 0 Z " fill="#E3D796" transform="translate(147.1328125,4.90234375)"/>
<path d="M0 0 C0.33 0 0.66 0 1 0 C1.12117188 1.134375 1.24234375 2.26875 1.3671875 3.4375 C1.53617251 4.95836512 1.70545953 6.4791967 1.875 8 C1.95363281 8.74378906 2.03226562 9.48757813 2.11328125 10.25390625 C2.68534208 15.31444433 3.67014735 20.08289777 5 25 C4.01 24.34 3.02 23.68 2 23 C2 22.34 2 21.68 2 21 C1.34 21 0.68 21 0 21 C-1.19600901 16.50832172 -0.9185704 12.26730207 -0.5625 7.6875 C-0.51029297 6.94693359 -0.45808594 6.20636719 -0.40429688 5.44335938 C-0.27549848 3.62847291 -0.13856738 1.81416675 0 0 Z " fill="#725933" transform="translate(345,263)"/>
<path d="M0 0 C0.99 0 1.98 0 3 0 C2.70184558 3.17061772 1.9053972 4.09171764 -0.43359375 6.359375 C-1.42488281 7.14828125 -2.41617187 7.9371875 -3.4375 8.75 C-4.92056641 9.94882813 -4.92056641 9.94882813 -6.43359375 11.171875 C-9 13 -9 13 -11 13 C-11 12.01 -11 11.02 -11 10 C-10.01 10 -9.02 10 -8 10 C-8 9.34 -8 8.68 -8 8 C-7.34 7.67 -6.68 7.34 -6 7 C-5.67 6.34 -5.34 5.68 -5 5 C-2.4375 4.375 -2.4375 4.375 0 4 C0 2.68 0 1.36 0 0 Z " fill="#7E6941" transform="translate(280,220)"/>
<path d="M0 0 C0 4.56130414 -2.31262285 7.15088705 -5.125 10.625 C-7.16710072 12.93522806 -7.16710072 12.93522806 -8 16 C-8.99 16.33 -9.98 16.66 -11 17 C-11 15.35 -11 13.7 -11 12 C-10.34 12 -9.68 12 -9 12 C-8.68546875 11.38511719 -8.3709375 10.77023438 -8.046875 10.13671875 C-7.40492187 8.92435547 -7.40492187 8.92435547 -6.75 7.6875 C-6.33234375 6.88699219 -5.9146875 6.08648437 -5.484375 5.26171875 C-3.91343217 2.86809796 -2.3732963 1.56698409 0 0 Z " fill="#A27D47" transform="translate(43,63)"/>
<path d="M0 0 C2.31 0 4.62 0 7 0 C5.98502564 3.04492309 5.4178943 4.0298639 3 6 C0.8125 6.6875 0.8125 6.6875 -1 7 C-1 6.34 -1 5.68 -1 5 C-1.99 4.67 -2.98 4.34 -4 4 C-3.67 3.34 -3.34 2.68 -3 2 C-2.01 2 -1.02 2 0 2 C0 1.34 0 0.68 0 0 Z " fill="#D6C67E" transform="translate(124,9)"/>
<path d="M0 0 C1.32 0 2.64 0 4 0 C4 0.66 4 1.32 4 2 C4.99 1.67 5.98 1.34 7 1 C7.66 2.65 8.32 4.3 9 6 C10.65 6 12.3 6 14 6 C14 6.66 14 7.32 14 8 C8.65155992 7.46515599 4.64203897 5.53309233 0 3 C0 2.01 0 1.02 0 0 Z " fill="#96754E" transform="translate(189,285)"/>
<path d="M0 0 C0.33 0 0.66 0 1 0 C1.19517554 1.93674185 1.38087873 3.87444009 1.5625 5.8125 C1.66691406 6.89144531 1.77132813 7.97039062 1.87890625 9.08203125 C2 12 2 12 1 15 C0.34 15 -0.32 15 -1 15 C-1 16.32 -1 17.64 -1 19 C-1.66 19 -2.32 19 -3 19 C-2.27637073 12.60794144 -1.19656638 6.31972924 0 0 Z " fill="#7D6137" transform="translate(29,225)"/>
<path d="M0 0 C0.66 0.33 1.32 0.66 2 1 C0.2262164 3.91082436 -1.57047394 6.59682455 -4 9 C-7.875 9.5 -7.875 9.5 -11 9 C-7.67149253 5.40521193 -4.01028669 2.77635232 0 0 Z " fill="#B1AC7A" transform="translate(279,241)"/>
<path d="M0 0 C-0.6875 1.9375 -0.6875 1.9375 -2 4 C-4.3125 4.625 -4.3125 4.625 -7 5 C-8.2065625 5.5259375 -8.2065625 5.5259375 -9.4375 6.0625 C-12.42308583 7.1547875 -14.84529623 7.14673041 -18 7 C-15.05054406 5.03369604 -12.26302526 3.74259147 -9 2.375 C-7.948125 1.92898438 -6.89625 1.48296875 -5.8125 1.0234375 C-3 0 -3 0 0 0 Z " fill="#A6996A" transform="translate(248,261)"/>
<path d="M0 0 C5.4389165 -0.21755666 9.87080814 -0.10428384 15 2 C13 4 13 4 10.72265625 4.265625 C9.84480469 4.26046875 8.96695313 4.2553125 8.0625 4.25 C7.18722656 4.25515625 6.31195313 4.2603125 5.41015625 4.265625 C3 4 3 4 0 2 C0 1.34 0 0.68 0 0 Z " fill="#E3D699" transform="translate(128,256)"/>
<path d="M0 0 C4.43458973 1.3937282 6.87378374 3.60582235 10 7 C7 7 4 7 1 7 C-1 4 -1 4 -0.625 1.8125 C-0.41875 1.214375 -0.2125 0.61625 0 0 Z " fill="#9A8359" transform="translate(265,32)"/>
<path d="M0 0 C2.94751667 2.74423966 5.22773678 5.36219655 7 9 C6 12 6 12 4 13 C2.00039988 13.039992 -0.00047242 13.04346799 -2 13 C-2 12.67 -2 12.34 -2 12 C-0.02 11.34 1.96 10.68 4 10 C3.67 9.67 3.34 9.34 3 9 C2.34 9.66 1.68 10.32 1 11 C1.20625 10.113125 1.4125 9.22625 1.625 8.3125 C2.02550239 4.7747289 1.56683516 3.13367033 0 0 Z " fill="#7A5C2E" transform="translate(353,294)"/>
<path d="M0 0 C0.66 0.99 1.32 1.98 2 3 C2.99 3.66 3.98 4.32 5 5 C2.23434618 5.92188461 0.61716298 6.11785222 -2.23046875 6.09765625 C-3.03291016 6.09443359 -3.83535156 6.09121094 -4.66210938 6.08789062 C-5.49548828 6.07951172 -6.32886719 6.07113281 -7.1875 6.0625 C-8.03248047 6.05798828 -8.87746094 6.05347656 -9.74804688 6.04882812 C-11.83206155 6.03705403 -13.91603977 6.0191189 -16 6 C-15.67 5.34 -15.34 4.68 -15 4 C-13.80375 4.020625 -12.6075 4.04125 -11.375 4.0625 C-7.81995131 4.06882571 -4.49444376 3.69888875 -1 3 C-0.67 2.01 -0.34 1.02 0 0 Z " fill="#F2E79F" transform="translate(192,256)"/>
<path d="M0 0 C2.475 0.99 2.475 0.99 5 2 C1.2440786 5.42931954 -3.23466745 6.56429083 -8 8 C-8.33 7.01 -8.66 6.02 -9 5 C-7.329375 4.87625 -7.329375 4.87625 -5.625 4.75 C-1.94246056 4.42126213 -1.94246056 4.42126213 -0.5625 1.9375 C-0.376875 1.298125 -0.19125 0.65875 0 0 Z " fill="#A59463" transform="translate(242,244)"/>
<path d="M0 0 C1.1055189 0.93590504 2.20935453 1.87379858 3.3125 2.8125 C3.92738281 3.33457031 4.54226563 3.85664062 5.17578125 4.39453125 C6.85424679 5.87172469 8.43882034 7.40039131 10 9 C9.67 9.66 9.34 10.32 9 11 C4.59810491 9.6549765 2.48951402 7.87257737 0 4 C0 2.68 0 1.36 0 0 Z " fill="#826D42" transform="translate(285,48)"/>
<path d="M0 0 C4.55519783 3.93963055 6.15451681 7.26928904 8 13 C6.10546875 12.65625 6.10546875 12.65625 4 12 C2.3125 9.5 2.3125 9.5 1 7 C0.67 6.67 0.34 6.34 0 6 C-0.04080783 4.00041636 -0.04254356 1.99954746 0 0 Z " fill="#947245" transform="translate(348,287)"/>
<path d="M0 0 C1.75070517 0.11470137 3.50057536 0.24219028 5.25 0.375 C6.22453125 0.44460938 7.1990625 0.51421875 8.203125 0.5859375 C10.95504011 0.99334393 12.6131086 1.62901692 15 3 C15.7425 3.37125 16.485 3.7425 17.25 4.125 C18.11625 4.558125 18.11625 4.558125 19 5 C12.42208127 4.58955515 6.25948114 4.13391403 0 2 C0 1.34 0 0.68 0 0 Z " fill="#8C7A55" transform="translate(210,294)"/>
<path d="M0 0 C0.66 0.33 1.32 0.66 2 1 C-1.43818811 4.18350751 -4.0834158 4.40267177 -8.6875 4.5625 C-10.79529466 4.63987177 -12.9034732 4.76900193 -15 5 C-15.33 5.66 -15.66 6.32 -16 7 C-18.97 6.505 -18.97 6.505 -22 6 C-22 5.67 -22 5.34 -22 5 C-21.16021606 4.82609741 -21.16021606 4.82609741 -20.3034668 4.64868164 C-17.76442215 4.12180947 -15.22595912 3.59218569 -12.6875 3.0625 C-11.80642578 2.88009766 -10.92535156 2.69769531 -10.01757812 2.50976562 C-9.17001953 2.33251953 -8.32246094 2.15527344 -7.44921875 1.97265625 C-6.27879028 1.72914429 -6.27879028 1.72914429 -5.0847168 1.48071289 C-2.8247029 0.99433396 -2.8247029 0.99433396 0 0 Z " fill="#7C6A47" transform="translate(223,269)"/>
<path d="M0 0 C2.00720923 0.28674418 4.0085944 0.61866701 6 1 C4 4 4 4 1.6171875 4.51171875 C0.71226562 4.56972656 -0.19265625 4.62773437 -1.125 4.6875 C-2.03507812 4.75324219 -2.94515625 4.81898438 -3.8828125 4.88671875 C-4.93082031 4.94279297 -4.93082031 4.94279297 -6 5 C-6 4.34 -6 3.68 -6 3 C-6.66 2.67 -7.32 2.34 -8 2 C-5.53925394 0.76962697 -3.7202437 1 -1 1 C-0.67 0.67 -0.34 0.34 0 0 Z " fill="#F2E495" transform="translate(284,288)"/>
<path d="M0 0 C0.9075 0.37125 1.815 0.7425 2.75 1.125 C3.08 2.115 3.41 3.105 3.75 4.125 C1.6020106 3.67687982 -0.54336561 3.21621652 -2.6875 2.75 C-3.88246094 2.49476563 -5.07742187 2.23953125 -6.30859375 1.9765625 C-7.76458984 1.55503906 -7.76458984 1.55503906 -9.25 1.125 C-9.58 0.465 -9.91 -0.195 -10.25 -0.875 C-6.81764418 -2.59117791 -3.5741175 -0.9622624 0 0 Z " fill="#BEAE7D" transform="translate(125.25,254.875)"/>
<path d="M0 0 C0.99 0.33 1.98 0.66 3 1 C2.60196439 3.88575819 2.20990931 4.82189513 -0.0625 6.75 C-0.701875 7.1625 -1.34125 7.575 -2 8 C-2 7.34 -2 6.68 -2 6 C-2.99 5.67 -3.98 5.34 -5 5 C-5 4.01 -5 3.02 -5 2 C-3.68 2 -2.36 2 -1 2 C-0.67 1.34 -0.34 0.68 0 0 Z " fill="#9D7E47" transform="translate(285,214)"/>
<path d="M0 0 C0 1.65 0 3.3 0 5 C-0.66 5 -1.32 5 -2 5 C-2 6.65 -2 8.3 -2 10 C-3.65 10.33 -5.3 10.66 -7 11 C-6.71612495 6.93112431 -6.22537285 5.25917878 -3.5 2.125 C-1 0 -1 0 0 0 Z " fill="#996C39" transform="translate(315,171)"/>
<path d="M0 0 C0 0.99 0 1.98 0 3 C-3.3 3.33 -6.6 3.66 -10 4 C-7.11599467 -1.76801067 -5.91158408 -1.15661428 0 0 Z " fill="#DFD495" transform="translate(256,260)"/>
<path d="M0 0 C0.99 0.33 1.98 0.66 3 1 C3 1.66 3 2.32 3 3 C3.66 3 4.32 3 5 3 C4.75 4.875 4.75 4.875 4 7 C2.0625 8.3125 2.0625 8.3125 0 9 C-0.66 8.67 -1.32 8.34 -2 8 C-1.67 7.05125 -1.34 6.1025 -1 5.125 C0.10159191 2.22937548 0.10159191 2.22937548 0 0 Z " fill="#9D7238" transform="translate(306,80)"/>
<path d="M0 0 C0.99 0.66 1.98 1.32 3 2 C1 4 1 4 -2.3125 4.1875 C-5.34749675 4.03317813 -8.05721919 3.71340141 -11 3 C-11 2.34 -11 1.68 -11 1 C-10.28972656 1.01160156 -9.57945312 1.02320313 -8.84765625 1.03515625 C-7.92855469 1.04417969 -7.00945312 1.05320312 -6.0625 1.0625 C-4.68771484 1.07990234 -4.68771484 1.07990234 -3.28515625 1.09765625 C-1.03406673 1.25949049 -1.03406673 1.25949049 0 0 Z " fill="#AA8F64" transform="translate(355,302)"/>
<path d="M0 0 C1.32 0 2.64 0 4 0 C3.814375 1.134375 3.62875 2.26875 3.4375 3.4375 C3.2209375 5.2009375 3.2209375 5.2009375 3 7 C3.33 7.33 3.66 7.66 4 8 C4.39454223 9.84599688 4.74176866 11.70225822 5.0625 13.5625 C5.32740234 15.08037109 5.32740234 15.08037109 5.59765625 16.62890625 C5.73042969 17.41136719 5.86320312 18.19382813 6 19 C5.34 19.33 4.68 19.66 4 20 C3.87882812 19.28714844 3.75765625 18.57429688 3.6328125 17.83984375 C2.68828573 12.44151 1.56348705 7.24884937 0 2 C0 1.34 0 0.68 0 0 Z " fill="#967136" transform="translate(25,176)"/>
<path d="M0 0 C-1.70828921 2.10633718 -2.52148416 2.93801608 -5.26171875 3.29296875 C-6.06222656 3.25816406 -6.86273438 3.22335937 -7.6875 3.1875 C-8.49574219 3.16042969 -9.30398437 3.13335937 -10.13671875 3.10546875 C-10.75160156 3.07066406 -11.36648437 3.03585937 -12 3 C-8.61326653 -2.08010021 -5.54065966 -0.94086673 0 0 Z " fill="#DBC989" transform="translate(213,257)"/>
<path d="M0 0 C0.66 0.33 1.32 0.66 2 1 C1.484375 1.4125 0.96875 1.825 0.4375 2.25 C-0.036875 2.8275 -0.51125 3.405 -1 4 C-0.77242269 6.16299211 -0.77242269 6.16299211 0 8 C-2.31 8.33 -4.62 8.66 -7 9 C-5.64978174 4.58110387 -3.73884332 2.65654657 0 0 Z " fill="#F1E39B" transform="translate(284,239)"/>
<path d="M0 0 C0.66 0.33 1.32 0.66 2 1 C1.57847656 1.54269531 1.15695312 2.08539063 0.72265625 2.64453125 C0.17480469 3.35996094 -0.37304688 4.07539063 -0.9375 4.8125 C-1.48277344 5.52019531 -2.02804687 6.22789062 -2.58984375 6.95703125 C-4.16856248 9.04125052 -4.16856248 9.04125052 -5 12 C-7 11 -7 11 -8 9 C-7.34 8.67 -6.68 8.34 -6 8 C-5.896875 7.21625 -5.79375 6.4325 -5.6875 5.625 C-5 3 -5 3 -2.5625 1.125 C-1.716875 0.75375 -0.87125 0.3825 0 0 Z " fill="#DAC77D" transform="translate(301,226)"/>
<path d="M0 0 C1.11375 0.2475 1.11375 0.2475 2.25 0.5 C5.19006578 1.11925696 5.19006578 1.11925696 9 1 C8.01 1.33 7.02 1.66 6 2 C6 2.66 6 3.32 6 4 C5.01 4 4.02 4 3 4 C2.67 5.65 2.34 7.3 2 9 C1.34 8.67 0.68 8.34 0 8 C0 5.36 0 2.72 0 0 Z " fill="#B0955B" transform="translate(266,226)"/>
<path d="M0 0 C0.3449145 1.33038449 0.67516582 2.66457061 1 4 C1.3403125 5.299375 1.3403125 5.299375 1.6875 6.625 C1.790625 7.40875 1.89375 8.1925 2 9 C1.34 9.66 0.68 10.32 0 11 C-0.33 10.67 -0.66 10.34 -1 10 C-1.103125 10.639375 -1.20625 11.27875 -1.3125 11.9375 C-1.539375 12.618125 -1.76625 13.29875 -2 14 C-2.99 14.33 -3.98 14.66 -5 15 C-3.33333333 10 -1.66666667 5 0 0 Z " fill="#7A5D33" transform="translate(331,170)"/>
<path d="M0 0 C3.44216672 2.6598561 3.99504674 5.90288286 5 10 C4.01 9.67 3.02 9.34 2 9 C1.67 8.34 1.34 7.68 1 7 C0.01 7.495 0.01 7.495 -1 8 C-1.04241723 5.66705225 -1.04092937 3.33297433 -1 1 C-0.67 0.67 -0.34 0.34 0 0 Z " fill="#AD8A4E" transform="translate(337,156)"/>
<path d="M0 0 C2.85818883 2.47989913 4.19893393 5.13646878 5.75 8.5625 C6.19859375 9.53316406 6.6471875 10.50382812 7.109375 11.50390625 C7.40328125 12.32761719 7.6971875 13.15132812 8 14 C7.67 14.66 7.34 15.32 7 16 C6.67 14.68 6.34 13.36 6 12 C5.34 12 4.68 12 4 12 C4 10.68 4 9.36 4 8 C3.34 8 2.68 8 2 8 C0.23537317 4.91190305 0 3.76687864 0 0 Z " fill="#6B5639" transform="translate(307,75)"/>
<path d="M0 0 C0.99 0.66 1.98 1.32 3 2 C2.43628586 5.26954202 1.50037734 6.82575883 -1 9 C-1.66 8.67 -2.32 8.34 -3 8 C-1.125 2.25 -1.125 2.25 0 0 Z " fill="#AA8D54" transform="translate(275,39)"/>
<path d="M0 0 C0.66 0 1.32 0 2 0 C2 2.64 2 5.28 2 8 C0.33333333 8 -1.33333333 8 -3 8 C-2.67 6.02 -2.34 4.04 -2 2 C-1.34 2 -0.68 2 0 2 C0 1.34 0 0.68 0 0 Z " fill="#B48C52" transform="translate(334,168)"/>
<path d="M0 0 C-2.3129482 2.3129482 -3.47904875 2.49580975 -6.625 3.125 C-7.44226563 3.29257813 -8.25953125 3.46015625 -9.1015625 3.6328125 C-10.04128906 3.81457031 -10.04128906 3.81457031 -11 4 C-10.34 3.67 -9.68 3.34 -9 3 C-9.33 2.01 -9.66 1.02 -10 0 C-6.30458414 -0.95024979 -3.69541586 -0.95024979 0 0 Z " fill="#B2A06C" transform="translate(233,252)"/>
<path d="M0 0 C1.134375 0.020625 2.26875 0.04125 3.4375 0.0625 C4.0975 1.3825 4.7575 2.7025 5.4375 4.0625 C4.1175 4.0625 2.7975 4.0625 1.4375 4.0625 C1.4375 3.4025 1.4375 2.7425 1.4375 2.0625 C-0.5425 3.0525 -0.5425 3.0525 -2.5625 4.0625 C-3.2225 3.0725 -3.8825 2.0825 -4.5625 1.0625 C-3.5625 0.0625 -3.5625 0.0625 0 0 Z " fill="#D7CA84" transform="translate(214.5625,9.9375)"/>
<path d="M0 0 C-1.36983503 3.16115776 -1.9890638 3.9927092 -5 6 C-5.99 6 -6.98 6 -8 6 C-7.67 4.35 -7.34 2.7 -7 1 C-2.25 0 -2.25 0 0 0 Z " fill="#A17438" transform="translate(192,277)"/>
<path d="M0 0 C0.99 0.33 1.98 0.66 3 1 C2.67 2.32 2.34 3.64 2 5 C-0.31 5.33 -2.62 5.66 -5 6 C-4.67 5.01 -4.34 4.02 -4 3 C-1.9375 2.3125 -1.9375 2.3125 0 2 C0 1.34 0 0.68 0 0 Z " fill="#B49862" transform="translate(72,251)"/>
<path d="M0 0 C0.66 0.99 1.32 1.98 2 3 C1.360625 3.28875 0.72125 3.5775 0.0625 3.875 C-2.15206079 4.82823451 -2.15206079 4.82823451 -3 7 C-4.30915279 8.03145371 -5.64082143 9.03542166 -7 10 C-7.66 9.67 -8.32 9.34 -9 9 C-6.03 6.03 -3.06 3.06 0 0 Z " fill="#A0946C" transform="translate(301,222)"/>
<path d="M0 0 C-1.39332574 3.36720387 -2.9789286 4.9859524 -6 7 C-6.66 5.68 -7.32 4.36 -8 3 C-5.53387212 -0.1151089 -3.89156016 -0.31553191 0 0 Z " fill="#88693F" transform="translate(294,210)"/>
<path d="M0 0 C0.99 0.33 1.98 0.66 3 1 C2.67 1.66 2.34 2.32 2 3 C1.67 3 1.34 3 1 3 C0.67 5.64 0.34 8.28 0 11 C-0.66 11 -1.32 11 -2 11 C-2.33 11.66 -2.66 12.32 -3 13 C-2.52060632 8.28596212 -2.03165952 4.33420699 0 0 Z " fill="#7D6444" transform="translate(336,154)"/>
<path d="M0 0 C0.66 0.33 1.32 0.66 2 1 C1.01 1.8971875 1.01 1.8971875 0 2.8125 C-2.3373846 4.87501834 -2.3373846 4.87501834 -2 8 C-4 9.6875 -4 9.6875 -6 11 C-6 10.34 -6 9.68 -6 9 C-6.66 8.67 -7.32 8.34 -8 8 C-5.36 5.36 -2.72 2.72 0 0 Z " fill="#7B663D" transform="translate(57,44)"/>
<path d="M0 0 C5.75 0.75 5.75 0.75 8 3 C7.34 3 6.68 3 6 3 C5.67 3.99 5.34 4.98 5 6 C4.01 6 3.02 6 2 6 C1.34 4.02 0.68 2.04 0 0 Z " fill="#D5C886" transform="translate(202,7)"/>
<path d="M0 0 C3.3 0 6.6 0 10 0 C10 0.99 10 1.98 10 3 C6.37 3 2.74 3 -1 3 C-0.67 2.01 -0.34 1.02 0 0 Z " fill="#FDF5AA" transform="translate(157,259)"/>
<path d="M0 0 C0.66 0.33 1.32 0.66 2 1 C1.01 3.64 0.02 6.28 -1 9 C-1.99 8.67 -2.98 8.34 -4 8 C-2.25 2.25 -2.25 2.25 0 0 Z M-7 6 C-6.34 6 -5.68 6 -5 6 C-4.67 6.99 -4.34 7.98 -4 9 C-4.99 8.67 -5.98 8.34 -7 8 C-7 7.34 -7 6.68 -7 6 Z " fill="#B28F53" transform="translate(56,47)"/>
<path d="M0 0 C0 0.99 0 1.98 0 3 C-5.94 1.515 -5.94 1.515 -12 0 C-6.76844369 -2.61577816 -5.40261966 -1.6207859 0 0 Z " fill="#907B4F" transform="translate(333,300)"/>
<path d="M0 0 C0 0.66 0 1.32 0 2 C-1.65 2.33 -3.3 2.66 -5 3 C-5 3.66 -5 4.32 -5 5 C-7.70879335 6.35439668 -10.00933268 6.06501451 -13 6 C-10.87838666 3.87838666 -9.2266841 3.07013751 -6.5 1.875 C-5.7059375 1.52179688 -4.911875 1.16859375 -4.09375 0.8046875 C-2 0 -2 0 0 0 Z " fill="#996E3A" transform="translate(31,266)"/>
<path d="M0 0 C0.99 0.33 1.98 0.66 3 1 C0.22719294 4.08089673 -2.06326356 5.68775452 -6 7 C-4.61990379 3.66476748 -3.15049348 1.81392049 0 0 Z " fill="#F8F3A8" transform="translate(263,253)"/>
<path d="M0 0 C0.33 1.32 0.66 2.64 1 4 C1.99 5.485 1.99 5.485 3 7 C1.68 7.99 0.36 8.98 -1 10 C-1.66 9.67 -2.32 9.34 -3 9 C-2.01 6.03 -1.02 3.06 0 0 Z " fill="#6F522D" transform="translate(26,85)"/>
<path d="M0 0 C3.37503669 1.1858237 5.64722731 2.27573689 8 5 C6.35 5.33 4.7 5.66 3 6 C3 5.34 3 4.68 3 4 C2.34 4 1.68 4 1 4 C0.67 2.68 0.34 1.36 0 0 Z " fill="#A99268" transform="translate(257,27)"/>
<path d="M0 0 C0.33 0 0.66 0 1 0 C1.36637589 6.35051546 1.36637589 6.35051546 -0.375 9.4375 C-2 11 -2 11 -4 11 C-3.52269162 9.5410574 -3.04308958 8.08286504 -2.5625 6.625 C-2.29566406 5.81289063 -2.02882813 5.00078125 -1.75390625 4.1640625 C-1 2 -1 2 0 0 Z " fill="#73532C" transform="translate(22,254)"/>
<path d="M0 0 C2.5 2.3125 2.5 2.3125 5 5 C5 5.99 5 6.98 5 8 C3.35 7.67 1.7 7.34 0 7 C0 4.69 0 2.38 0 0 Z " fill="#86683F" transform="translate(298,62)"/>
<path d="M0 0 C0.66 0.33 1.32 0.66 2 1 C0.68 2.65 -0.64 4.3 -2 6 C-3.65 5.67 -5.3 5.34 -7 5 C-4.88437775 2.67281553 -2.94982021 1.14186589 0 0 Z " fill="#A6A16A" transform="translate(259,254)"/>
<path d="M0 0 C-2.62198774 2.15377564 -4.64404172 3.40072174 -8 4 C-8 3.34 -8 2.68 -8 2 C-8.66 1.67 -9.32 1.34 -10 1 C-3.71428571 -1.42857143 -3.71428571 -1.42857143 0 0 Z " fill="#A4905D" transform="translate(255,242)"/>
<path d="M0 0 C1.54046762 4.10791365 0.75996191 7.78566579 0 12 C-0.99 12.495 -0.99 12.495 -2 13 C-2.16682272 8.07872966 -2.24828052 4.49656104 0 0 Z " fill="#936B3E" transform="translate(24,93)"/>
<path d="M0 0 C0.99 0.66 1.98 1.32 3 2 C3 3.32 3 4.64 3 6 C0.69 5.34 -1.62 4.68 -4 4 C-3.67 3.34 -3.34 2.68 -3 2 C-2.01 2 -1.02 2 0 2 C0 1.34 0 0.68 0 0 Z " fill="#9C7946" transform="translate(295,59)"/>
<path d="M0 0 C3.91211733 1.15585285 6.8745041 2.35534962 10 5 C6.05272412 5.17942163 3.4019487 5.09350689 0 3 C0 2.01 0 1.02 0 0 Z " fill="#A0905C" transform="translate(242,19)"/>
<path d="M0 0 C-1 2 -1 2 -3.8125 3.1875 C-6.85961076 3.96421451 -8.13749363 4.10096399 -11 3 C-10.67 2.34 -10.34 1.68 -10 1 C-6.56187949 0.23597322 -3.53471921 0 0 0 Z " fill="#D0C07D" transform="translate(240,267)"/>
<path d="M0 0 C0.66 0.33 1.32 0.66 2 1 C1.25 2.9375 1.25 2.9375 0 5 C-2.125 5.75 -2.125 5.75 -4 6 C-3.67 4.35 -3.34 2.7 -3 1 C-2.01 0.67 -1.02 0.34 0 0 Z " fill="#875E2E" transform="translate(20,264)"/>
<path d="M0 0 C1.98 0 3.96 0 6 0 C3.47211993 2.79872437 1.79588866 4.45773019 -2 5 C-1.34 3.35 -0.68 1.7 0 0 Z " fill="#988451" transform="translate(260,235)"/>
<path d="M0 0 C0.66 0.66 1.32 1.32 2 2 C-0.31 3.32 -2.62 4.64 -5 6 C-5 5.34 -5 4.68 -5 4 C-5.66 3.67 -6.32 3.34 -7 3 C-4.69 2.01 -2.38 1.02 0 0 Z " fill="#CAB879" transform="translate(106,16)"/>
<path d="M0 0 C2.375 -0.1875 2.375 -0.1875 5 0 C5.66 0.99 6.32 1.98 7 3 C4.69 3 2.38 3 0 3 C0 2.01 0 1.02 0 0 Z " fill="#BB9D4B" transform="translate(209,290)"/>
<path d="M0 0 C0.66 0 1.32 0 2 0 C1.67 1.65 1.34 3.3 1 5 C-0.65 5 -2.3 5 -4 5 C-4 4.34 -4 3.68 -4 3 C-3.01 3 -2.02 3 -1 3 C-0.67 2.01 -0.34 1.02 0 0 Z " fill="#A37E4C" transform="translate(294,205)"/>
<path d="M0 0 C1 2 1 2 0.875 4.5 C0 7 0 7 -2.5625 8.3125 C-3.7690625 8.6528125 -3.7690625 8.6528125 -5 9 C-3.7508258 5.54074837 -2.32472205 2.85306797 0 0 Z " fill="#867949" transform="translate(317,201)"/>
<path d="M0 0 C0.99 0.99 1.98 1.98 3 3 C2 6 2 6 0 7 C-1.99960012 7.039992 -4.00047242 7.04346799 -6 7 C-6 6.67 -6 6.34 -6 6 C-4.02 5.34 -2.04 4.68 0 4 C0 2.68 0 1.36 0 0 Z " fill="#594E2B" transform="translate(357,300)"/>
<path d="M0 0 C1.1875 1.625 1.1875 1.625 2 4 C0.625 7.25 0.625 7.25 -1 10 C-2.46726798 6.18510326 -1.43336419 3.70988378 0 0 Z " fill="#B49452" transform="translate(330,178)"/>
<path d="M0 0 C0.99 0.33 1.98 0.66 3 1 C2.34 2.98 1.68 4.96 1 7 C-1 4 -1 4 -0.625 1.8125 C-0.41875 1.214375 -0.2125 0.61625 0 0 Z " fill="#B1935D" transform="translate(265,32)"/>
<path d="M0 0 C0.598125 0.20625 1.19625 0.4125 1.8125 0.625 C-1.1575 3.1 -1.1575 3.1 -4.1875 5.625 C-4.5175 4.305 -4.8475 2.985 -5.1875 1.625 C-2.1875 -0.375 -2.1875 -0.375 0 0 Z " fill="#D5C987" transform="translate(139.1875,6.375)"/>
<path d="M0 0 C2.97 0.495 2.97 0.495 6 1 C5.01 2.485 5.01 2.485 4 4 C1.525 3.01 1.525 3.01 -1 2 C-0.67 1.34 -0.34 0.68 0 0 Z " fill="#E3D092" transform="translate(284,288)"/>
<path d="M0 0 C1.65 1.65 3.3 3.3 5 5 C1.48283697 5 0.62878252 4.17554415 -2 2 C-1.34 1.34 -0.68 0.68 0 0 Z " fill="#A59566" transform="translate(298,285)"/>
<path d="M0 0 C0.66 0 1.32 0 2 0 C5 4.38461538 5 4.38461538 5 7 C1.26360784 5.75453595 0.81243487 4.36595047 -1 1 C-0.67 0.67 -0.34 0.34 0 0 Z " fill="#D3BC7C" transform="translate(300,284)"/>
<path d="M0 0 C0 3 0 3 -1 5 C-3.97 4.505 -3.97 4.505 -7 4 C-6.1028125 3.566875 -6.1028125 3.566875 -5.1875 3.125 C-2.80672208 1.95257974 -2.80672208 1.95257974 0 0 Z " fill="#CDBD82" transform="translate(297,284)"/>
<path d="M0 0 C1.98 0 3.96 0 6 0 C5.34 1.32 4.68 2.64 4 4 C3.01 4 2.02 4 1 4 C0.67 2.68 0.34 1.36 0 0 Z " fill="#F8F19E" transform="translate(268,250)"/>
<path d="M0 0 C0 0.66 0 1.32 0 2 C-1.98 2.66 -3.96 3.32 -6 4 C-6.33 3.01 -6.66 2.02 -7 1 C-4.53721199 -0.231394 -2.7204945 -0.07159196 0 0 Z " fill="#AF9D68" transform="translate(240,248)"/>
<path d="M0 0 C2.3431213 0.25561323 4.67843403 0.59270772 7 1 C7.33 1.66 7.66 2.32 8 3 C5.36 2.67 2.72 2.34 0 2 C0 1.34 0 0.68 0 0 Z " fill="#D8BE80" transform="translate(103,248)"/>
<path d="M0 0 C0 0.66 0 1.32 0 2 C-0.66 2 -1.32 2 -2 2 C-2.33 2.99 -2.66 3.98 -3 5 C-3.99 4.67 -4.98 4.34 -6 4 C-5.67 3.01 -5.34 2.02 -5 1 C-3 0 -3 0 0 0 Z " fill="#B69456" transform="translate(64,43)"/>
</svg>
